<svg width="44" height="13" viewBox="0 0 44 13" fill="none" xmlns="http://www.w3.org/2000/svg">
<path d="M19.4 9.39V8.7L22.91 3.84H24V8.6H25V9.39H24V11H23.1V9.39H19.4ZM23.14 4.79L20.45 8.6H23.14V4.79ZM26.9991 9.74L25.8791 12.43H25.2691L25.9991 9.74H26.9991ZM29.0615 9.06C29.1282 9.44 29.2815 9.73333 29.5215 9.94C29.7682 10.1467 30.0982 10.25 30.5115 10.25C31.0648 10.25 31.4715 10.0333 31.7315 9.6C31.9982 9.16667 32.1248 8.43667 32.1115 7.41C31.9715 7.71 31.7382 7.94667 31.4115 8.12C31.0848 8.28667 30.7215 8.37 30.3215 8.37C29.8748 8.37 29.4748 8.28 29.1215 8.1C28.7748 7.91333 28.5015 7.64333 28.3015 7.29C28.1015 6.93667 28.0015 6.51 28.0015 6.01C28.0015 5.29667 28.2082 4.72333 28.6215 4.29C29.0348 3.85 29.6215 3.63 30.3815 3.63C31.3148 3.63 31.9682 3.93333 32.3415 4.54C32.7215 5.14667 32.9115 6.05 32.9115 7.25C32.9115 8.09 32.8348 8.78333 32.6815 9.33C32.5348 9.87667 32.2815 10.2933 31.9215 10.58C31.5682 10.8667 31.0815 11.01 30.4615 11.01C29.7815 11.01 29.2515 10.8267 28.8715 10.46C28.4915 10.0933 28.2748 9.62667 28.2215 9.06H29.0615ZM30.4715 7.6C30.9182 7.6 31.2848 7.46333 31.5715 7.19C31.8582 6.91 32.0015 6.53333 32.0015 6.06C32.0015 5.56 31.8615 5.15667 31.5815 4.85C31.3015 4.54333 30.9082 4.39 30.4015 4.39C29.9348 4.39 29.5615 4.53667 29.2815 4.83C29.0082 5.12333 28.8715 5.51 28.8715 5.99C28.8715 6.47667 29.0082 6.86667 29.2815 7.16C29.5548 7.45333 29.9515 7.6 30.4715 7.6Z" fill="black"/>
<g clip-path="url(#clip0_20_3)">
<path d="M2.93365 12.9506C2.62002 13.1222 2.26415 12.8215 2.32752 12.4376L3.0019 8.33836L0.139468 5.42992C-0.127844 5.15779 0.0110934 4.66035 0.369405 4.60661L4.34902 4.00343L6.12351 0.253492C6.28358 -0.0844972 6.71664 -0.0844972 6.8767 0.253492L8.65119 4.00343L12.6308 4.60661C12.9891 4.66035 13.1281 5.15779 12.8599 5.42992L9.99832 8.33836L10.6727 12.4376C10.7361 12.8215 10.3802 13.1222 10.0666 12.9506L6.49889 10.9955L2.93365 12.9506Z" fill="black"/>
</g>
<defs>
<clipPath id="clip0_20_3">
<rect width="13" height="13" fill="white"/>
</clipPath>
</defs>
</svg>
