<svg width="51" height="51" viewBox="0 0 51 51" fill="none" xmlns="http://www.w3.org/2000/svg">
<path d="M48.45 22.95H28.05V2.55C28.05 1.8737 27.7813 1.2251 27.3031 0.746878C26.8249 0.26866 26.1763 0 25.5 0C24.8237 0 24.1751 0.26866 23.6969 0.746878C23.2187 1.2251 22.95 1.8737 22.95 2.55V22.95H2.55C1.8737 22.95 1.2251 23.2187 0.746878 23.6969C0.26866 24.1751 0 24.8237 0 25.5C0 26.1763 0.26866 26.8249 0.746878 27.3031C1.2251 27.7813 1.8737 28.05 2.55 28.05H22.95V48.45C22.95 49.1263 23.2187 49.7749 23.6969 50.2531C24.1751 50.7313 24.8237 51 25.5 51C26.1763 51 26.8249 50.7313 27.3031 50.2531C27.7813 49.7749 28.05 49.1263 28.05 48.45V28.05H48.45C49.1263 28.05 49.7749 27.7813 50.2531 27.3031C50.7313 26.8249 51 26.1763 51 25.5C51 24.8237 50.7313 24.1751 50.2531 23.6969C49.7749 23.2187 49.1263 22.95 48.45 22.95Z" fill="black"/>
</svg>
