<svg width="33" height="33" viewBox="0 0 33 33" fill="none" xmlns="http://www.w3.org/2000/svg">
<path fill-rule="evenodd" clip-rule="evenodd" d="M16.25 30C18.0557 30 19.8437 29.6443 21.5119 28.9533C23.1801 28.2623 24.6959 27.2495 25.9727 25.9727C27.2495 24.6959 28.2623 23.1801 28.9533 21.5119C29.6443 19.8437 30 18.0557 30 16.25C30 14.4443 29.6443 12.6563 28.9533 10.9881C28.2623 9.31988 27.2495 7.80409 25.9727 6.52728C24.6959 5.25048 23.1801 4.23766 21.5119 3.54666C19.8437 2.85565 18.0557 2.5 16.25 2.5C12.6033 2.5 9.10591 3.94866 6.52728 6.52728C3.94866 9.10591 2.5 12.6033 2.5 16.25C2.5 19.8967 3.94866 23.3941 6.52728 25.9727C9.10591 28.5513 12.6033 30 16.25 30ZM32.5 16.25C32.5 20.5598 30.788 24.693 27.7405 27.7405C24.693 30.788 20.5598 32.5 16.25 32.5C11.9402 32.5 7.80698 30.788 4.75951 27.7405C1.71205 24.693 0 20.5598 0 16.25C0 11.9402 1.71205 7.80698 4.75951 4.75951C7.80698 1.71205 11.9402 0 16.25 0C20.5598 0 24.693 1.71205 27.7405 4.75951C30.788 7.80698 32.5 11.9402 32.5 16.25Z" fill="black"/>
</svg>
